<?xml version="1.0" standalone="no"?>
<!DOCTYPE svg PUBLIC "-//W3C//DTD SVG 20010904//EN"
 "http://www.w3.org/TR/2001/REC-SVG-20010904/DTD/svg10.dtd">
<svg version="1.0" xmlns="http://www.w3.org/2000/svg"
 width="1600.000000pt" height="1600.000000pt" viewBox="0 0 1600.000000 1600.000000"
 preserveAspectRatio="xMidYMid meet">

<g transform="translate(0.000000,1600.000000) scale(0.100000,-0.100000)"
fill="#008000" stroke="none">
<path d="M7665 15994 c-33 -2 -132 -8 -220 -14 -2304 -156 -4448 -1321 -5840
-3174 -858 -1143 -1397 -2500 -1555 -3919 -37 -329 -45 -488 -45 -887 0 -399
8 -558 45 -887 235 -2102 1290 -4021 2940 -5348 1224 -983 2694 -1580 4265
-1729 553 -53 1174 -44 1725 25 2318 289 4381 1562 5677 3504 1175 1762 1602
3922 1187 6005 -203 1018 -609 1998 -1187 2865 -689 1033 -1599 1884 -2677
2505 -200 115 -571 302 -773 389 -837 362 -1667 570 -2577 646 -173 15 -824
28 -965 19z m3568 -5281 c124 -43 189 -85 292 -188 77 -76 98 -105 138 -185
61 -124 80 -207 80 -345 0 -186 -51 -324 -178 -481 -35 -43 -974 -988 -2087
-2099 -1541 -1539 -2037 -2028 -2080 -2054 -143 -83 -271 -115 -433 -108 -124
5 -239 38 -343 98 -43 25 -324 300 -1148 1124 l-1092 1090 -46 95 c-55 113
-74 185 -82 300 -20 299 160 594 437 718 106 48 191 65 314 65 134 1 206 -16
335 -79 l95 -46 782 -781 781 -780 1774 1775 c1374 1375 1786 1782 1830 1807
146 84 257 112 423 107 102 -3 133 -7 208 -33z"/>
</g>
</svg>
